<?xml version="1.0" encoding="UTF-8"?>
<svg xmlns="http://www.w3.org/2000/svg" width="800.000" height="600.000" viewBox="0.0 0.0 800.000 600.000" version="1.1">
  <title>Produce by Acme CAD Converter</title>
  <desc>Produce by Acme CAD Converter</desc>
<path d="M479.1 79.85L542.76 79.85"
fill="none" stroke="yellow" stroke-width="0.5"/>
<path d="M479.1 551.1L542.76 551.1"
fill="none" stroke="yellow" stroke-width="0.5"/>
<path d="M538.05 93.99L538.05 536.96"
fill="none" stroke="yellow" stroke-width="0.5"/>
<path d="M535.7 93.99L538.05 79.85 538.05 79.85 540.41 93.99 535.7 93.99Z"
fill-rule="evenodd" fill="yellow"/>
<path d="M535.7 536.96L538.05 551.1 538.05 551.1 540.41 536.96 535.7 536.96Z"
fill-rule="evenodd" fill="yellow"/>
<path d="M535.11 354.02L516.26 354.02M526.13 354.02L523.44 351.33M523.44 351.33L522.54 349.54M522.54 349.54L522.54 346.84M522.54 346.84L523.44 345.05M523.44 345.05L526.13 344.15M526.13 344.15L535.11 344.15"
fill="none" stroke="yellow" stroke-width="0.5"/>
<path d="M476.16 79.85L476.16 79.85"
fill="none" stroke="black" stroke-width="0.5"/>
<path d="M476.16 551.1L476.16 551.1"
fill="none" stroke="black" stroke-width="0.5"/>
<path d="M538.05 551.1L538.05 551.1"
fill="none" stroke="black" stroke-width="0.5"/>
<path d="M240.54 76.91L240.54 18.93"
fill="none" stroke="yellow" stroke-width="0.5"/>
<path d="M476.16 76.91L476.16 18.93"
fill="none" stroke="yellow" stroke-width="0.5"/>
<path d="M254.67 23.65L462.02 23.65"
fill="none" stroke="yellow" stroke-width="0.5"/>
<path d="M254.67 21.29L240.54 23.65 240.54 23.65 254.67 26 254.67 21.29Z"
fill-rule="evenodd" fill="yellow"/>
<path d="M462.02 21.29L476.16 23.65 476.16 23.65 462.02 26 462.02 21.29Z"
fill-rule="evenodd" fill="yellow"/>
<path d="M352.96 20.55L352.96 1.7M352.96 10.67L354.76 8.88M354.76 8.88L356.55 7.98M356.55 7.98L359.24 7.98M359.24 7.98L361.04 8.88M361.04 8.88L362.84 10.67M362.84 10.67L363.73 13.37M363.73 13.37L363.73 15.16M363.73 15.16L362.84 17.85M362.84 17.85L361.04 19.65M361.04 19.65L359.24 20.55M359.24 20.55L356.55 20.55M356.55 20.55L354.76 19.65M354.76 19.65L352.96 17.85"
fill="none" stroke="yellow" stroke-width="0.5"/>
<path d="M240.54 79.85L240.54 79.85"
fill="none" stroke="black" stroke-width="0.5"/>
<path d="M476.16 79.85L476.16 79.85"
fill="none" stroke="black" stroke-width="0.5"/>
<path d="M476.16 23.65L476.16 23.65"
fill="none" stroke="black" stroke-width="0.5"/>
<path d="M388.77 466.27L283.16 466.27"
fill="none" stroke="yellow" stroke-width="0.5"/>
<path d="M444.94 164.68L283.16 164.68"
fill="none" stroke="yellow" stroke-width="0.5"/>
<path d="M287.87 452.13L287.87 178.81"
fill="none" stroke="yellow" stroke-width="0.5"/>
<path d="M285.52 452.13L287.87 466.27 287.87 466.27 290.23 452.13 285.52 452.13Z"
fill-rule="evenodd" fill="yellow"/>
<path d="M285.52 178.81L287.87 164.68 287.87 164.68 290.23 178.81 285.52 178.81Z"
fill-rule="evenodd" fill="yellow"/>
<path d="M284.89 326.24L266.04 326.24M275.91 326.24L273.22 323.55M273.22 323.55L272.32 321.76M272.32 321.76L272.32 319.06M272.32 319.06L273.22 317.27M273.22 317.27L275.91 316.37M275.91 316.37L284.89 316.37M269.63 309.19L268.73 307.4M268.73 307.4L266.04 304.7M266.04 304.7L284.89 304.7"
fill="none" stroke="yellow" stroke-width="0.5"/>
<path d="M391.72 466.27L391.72 466.27"
fill="none" stroke="black" stroke-width="0.5"/>
<path d="M447.88 164.68L447.88 164.68"
fill="none" stroke="black" stroke-width="0.5"/>
<path d="M287.87 164.68L287.87 164.68"
fill="none" stroke="black" stroke-width="0.5"/>
<path d="M212.49 128.56L234.66 112.37"
fill="none" stroke="yellow" stroke-width="0.5"/>
<path d="M213.23 124.37L205.82 114.22M209 118.57L208.13 115.87M208.13 115.87L208.52 113.36M208.52 113.36L209.44 111.58M209.44 111.58L211.62 109.99"
fill="none" stroke="yellow" stroke-width="0.5"/>
<path d="M261.3 92.92L246.08 104.03"
fill="none" stroke="yellow" stroke-width="0.5"/>
<path d="M233.27 110.47L246.08 104.03 246.08 104.03 236.05 114.27 233.27 110.47Z"
fill-rule="evenodd" fill="yellow"/>
<path d="M246.08 104.03L246.08 104.03"
fill="none" stroke="black" stroke-width="0.5"/>
<path d="M261.3 92.92L261.3 92.92"
fill="none" stroke="black" stroke-width="0.5"/>
<path d="M314.08 315.47L349.4 315.47M379.32 315.47L409.24 315.47M439.17 315.47L469.09 315.47M499.02 315.47L528.94 315.47M558.86 315.47L594.18 315.47"
fill="none" stroke="yellow" stroke-width="0.5"/>
<path d="M358.35 380.65L358.35 360.36M358.35 330.44L358.35 300.51M358.35 270.59L358.35 250.29"
fill="none" stroke="yellow" stroke-width="0.5"/>
<path d="M409.67 460.85L428.23 482.53"
fill="none" stroke="yellow" stroke-width="0.5"/>
<path d="M413.9 461.26L423.45 453.09M419.36 456.59L421.99 455.52M421.99 455.52L424.52 455.72M424.52 455.72L426.37 456.5M426.37 456.5L428.12 458.55"
fill="none" stroke="yellow" stroke-width="0.5"/>
<path d="M430.02 481L437.42 493.27 437.42 493.27 426.44 484.06 430.02 481Z"
fill-rule="evenodd" fill="yellow"/>
<path d="M437.42 493.27L437.42 493.27"
fill="none" stroke="black" stroke-width="0.5"/>
<path d="M412.91 464.63L412.91 464.63"
fill="none" stroke="black" stroke-width="0.5"/>
<path d="M360.11 79.85L358.35 79.85"
fill="none" stroke="yellow" stroke-width="0.5"/>
<path d="M363.61 120.12L367.77 120.12"
fill="none" stroke="yellow" stroke-width="0.5"/>
<path d="M363.06 105.98L363.06 93.99"
fill="none" stroke="yellow" stroke-width="0.5"/>
<path d="M363.06 79.85L363.06 35.18"
fill="none" stroke="yellow" stroke-width="0.5"/>
<path d="M360.7 105.98L363.06 120.12 363.06 120.12 365.42 105.98 360.7 105.98Z"
fill-rule="evenodd" fill="yellow"/>
<path d="M360.7 93.99L363.06 79.85 363.06 79.85 365.42 93.99 360.7 93.99Z"
fill-rule="evenodd" fill="yellow"/>
<path d="M352.74 60.19L352.74 49.42M352.74 49.42L350.95 49.42M350.95 49.42L349.15 50.32M349.15 50.32L348.25 51.22M348.25 51.22L347.35 53.01M347.35 53.01L347.35 55.71M347.35 55.71L348.25 57.5M348.25 57.5L350.05 59.3M350.05 59.3L352.74 60.19M352.74 60.19L354.54 60.19M354.54 60.19L357.23 59.3M357.23 59.3L359.02 57.5M359.02 57.5L359.92 55.71M359.92 55.71L359.92 53.01M359.92 53.01L359.02 51.22M359.02 51.22L357.23 49.42M344.66 44.04L343.76 42.24M343.76 42.24L341.07 39.55M341.07 39.55L359.92 39.55"
fill="none" stroke="yellow" stroke-width="0.5"/>
<path d="M363.06 79.85L363.06 79.85"
fill="none" stroke="black" stroke-width="0.5"/>
<path d="M360.66 120.12L360.66 120.12"
fill="none" stroke="black" stroke-width="0.5"/>
<path d="M363.06 120.12L363.06 120.12"
fill="none" stroke="black" stroke-width="0.5"/>
<path d="M240.54 554.04L240.54 598.3"
fill="none" stroke="yellow" stroke-width="0.5"/>
<path d="M358.35 554.04L358.35 598.3"
fill="none" stroke="yellow" stroke-width="0.5"/>
<path d="M254.67 593.59L344.21 593.59"
fill="none" stroke="yellow" stroke-width="0.5"/>
<path d="M254.67 591.23L240.54 593.59 240.54 593.59 254.67 595.95 254.67 591.23Z"
fill-rule="evenodd" fill="yellow"/>
<path d="M344.21 591.23L358.35 593.59 358.35 593.59 344.21 595.95 344.21 591.23Z"
fill-rule="evenodd" fill="yellow"/>
<path d="M274.76 588.98L274.76 570.13M274.76 579.1L276.55 577.31M276.55 577.31L278.35 576.41M278.35 576.41L281.04 576.41M281.04 576.41L282.84 577.31M282.84 577.31L284.63 579.1M284.63 579.1L285.53 581.8M285.53 581.8L285.53 583.59M285.53 583.59L284.63 586.28M284.63 586.28L282.84 588.08M282.84 588.08L281.04 588.98M281.04 588.98L278.35 588.98M278.35 588.98L276.55 588.08M276.55 588.08L274.76 586.28M307.97 566.54L291.81 595.26M312.46 574.61L312.46 573.72M312.46 573.72L313.35 571.92M313.35 571.92L314.25 571.02M314.25 571.02L316.05 570.13M316.05 570.13L319.64 570.13M319.64 570.13L321.43 571.02M321.43 571.02L322.33 571.92M322.33 571.92L323.23 573.72M323.23 573.72L323.23 575.51M323.23 575.51L322.33 577.31M322.33 577.31L320.54 580M320.54 580L311.56 588.98M311.56 588.98L324.13 588.98"
fill="none" stroke="yellow" stroke-width="0.5"/>
<path d="M240.54 551.1L240.54 551.1"
fill="none" stroke="black" stroke-width="0.5"/>
<path d="M358.35 551.1L358.35 551.1"
fill="none" stroke="black" stroke-width="0.5"/>
<path d="M358.35 593.59L358.35 593.59"
fill="none" stroke="black" stroke-width="0.5"/>
<path d="M447.88 399.01L447.88 397.24"
fill="none" stroke="yellow" stroke-width="0.5"/>
<path d="M476.16 399.01L476.16 397.24"
fill="none" stroke="yellow" stroke-width="0.5"/>
<path d="M433.75 401.95L419.61 401.95"
fill="none" stroke="yellow" stroke-width="0.5"/>
<path d="M490.3 401.95L522.91 401.95"
fill="none" stroke="yellow" stroke-width="0.5"/>
<path d="M447.88 401.95L476.16 401.95"
fill="none" stroke="yellow" stroke-width="0.5"/>
<path d="M433.75 399.6L447.88 401.95 447.88 401.95 433.75 404.31 433.75 399.6Z"
fill-rule="evenodd" fill="yellow"/>
<path d="M490.3 399.6L476.16 401.95 476.16 401.95 490.3 404.31 490.3 399.6Z"
fill-rule="evenodd" fill="yellow"/>
<path d="M508.29 391.67L519.06 391.67M519.06 391.67L519.06 389.88M519.06 389.88L518.16 388.08M518.16 388.08L517.26 387.19M517.26 387.19L515.47 386.29M515.47 386.29L512.77 386.29M512.77 386.29L510.98 387.19M510.98 387.19L509.18 388.98M509.18 388.98L508.29 391.67M508.29 391.67L508.29 393.47M508.29 393.47L509.18 396.16M509.18 396.16L510.98 397.96M510.98 397.96L512.77 398.85M512.77 398.85L515.47 398.85M515.47 398.85L517.26 397.96M517.26 397.96L519.06 396.16"
fill="none" stroke="yellow" stroke-width="0.5"/>
<path d="M447.88 401.95L447.88 401.95"
fill="none" stroke="black" stroke-width="0.5"/>
<path d="M476.16 401.95L476.16 401.95"
fill="none" stroke="black" stroke-width="0.5"/>
<path d="M476.16 401.95L476.16 401.95"
fill="none" stroke="black" stroke-width="0.5"/>
<path d="M324.27 268.12L341.87 266.98M324.27 253.03L341.87 266.98M341.87 266.98L349.42 273.5M349.42 273.5L350.67 275.21M350.67 275.21L350.67 278.98"
fill="none" stroke="yellow" stroke-width="0.5"/>
<path d="M570.21 307.32L590.45 289.72M584.04 307.32L576.62 289.72"
fill="none" stroke="yellow" stroke-width="0.5"/>
<path d="M447.88 466.27L447.88 164.68M447.88 164.68L447.88 164.68M447.88 164.68L447.69 160.73M447.69 160.73L447.11 156.83M447.11 156.83L446.14 153M446.14 153L444.81 149.28M444.81 149.28L443.11 145.72M443.11 145.72L441.07 142.33M441.07 142.33L438.71 139.17M438.71 139.17L436.05 136.25M436.05 136.25L433.12 133.61M433.12 133.61L429.93 131.27M429.93 131.27L426.54 129.26M426.54 129.26L422.96 127.59M422.96 127.59L419.24 126.28M419.24 126.28L415.4 125.34M415.4 125.34L411.49 124.79M411.49 124.79L259.8 110.86M259.8 110.86L259.8 110.86M259.8 110.86L256.99 110.41M256.99 110.41L254.26 109.58M254.26 109.58L251.67 108.4M251.67 108.4L249.26 106.88M249.26 106.88L247.07 105.05M247.07 105.05L245.15 102.95M245.15 102.95L243.53 100.61M243.53 100.61L242.24 98.07M242.24 98.07L241.3 95.38M241.3 95.38L240.73 92.58M240.73 92.58L240.54 89.74M240.54 89.74L240.54 79.85M240.54 79.85L476.16 79.85M476.16 79.85L476.16 551.1M476.16 551.1L240.54 551.1M240.54 551.1L240.54 541.21M240.54 541.21L240.54 541.21M240.54 541.21L240.73 538.36M240.73 538.36L241.3 535.57M241.3 535.57L242.24 532.88M242.24 532.88L243.53 530.34M243.53 530.34L245.15 528M245.15 528L247.07 525.89M247.07 525.89L249.26 524.07M249.26 524.07L251.67 522.55M251.67 522.55L254.26 521.36M254.26 521.36L256.99 520.54M256.99 520.54L259.8 520.09M259.8 520.09L411.49 506.16M411.49 506.16L411.49 506.16M411.49 506.16L415.4 505.61M415.4 505.61L419.24 504.67M419.24 504.67L422.96 503.36M422.96 503.36L426.54 501.69M426.54 501.69L429.93 499.67M429.93 499.67L433.12 497.34M433.12 497.34L436.05 494.7M436.05 494.7L438.71 491.78M438.71 491.78L441.07 488.61M441.07 488.61L443.11 485.23M443.11 485.23L444.81 481.67M444.81 481.67L446.14 477.95M446.14 477.95L447.11 474.12M447.11 474.12L447.69 470.22M447.69 470.22L447.88 466.27"
fill="none" stroke="black" stroke-width="0.5"/>
</svg>
