<?xml version="1.0" encoding="UTF-8"?>
<svg xmlns="http://www.w3.org/2000/svg" width="1600.000" height="1200.000"
  viewBox="0.0 0.0 800.000 600.000" version="1.1">
  <title>Produce by Acme CAD Converter</title>
  <desc>Produce by Acme CAD Converter</desc>
  <path
    d="M441.75 501.47L441.75 148.3M441.75 148.3L441.75 148.3M441.75 148.3L441.58 145.27M441.58 145.27L441.06 142.28M441.06 142.28L440.2 139.37M440.2 139.37L439.02 136.58M439.02 136.58L437.52 133.95M437.52 133.95L435.73 131.5M435.73 131.5L433.67 129.27M433.67 129.27L431.37 127.29M431.37 127.29L428.86 125.59M428.86 125.59L426.17 124.19M426.17 124.19L423.34 123.11M423.34 123.11L420.4 122.35M420.4 122.35L417.4 121.94M417.4 121.94L304.27 113.01M304.27 113.01L304.27 113.01M304.27 113.01L302.02 112.64M302.02 112.64L299.86 111.91M299.86 111.91L297.86 110.83M297.86 110.83L296.06 109.44M296.06 109.44L294.51 107.77M294.51 107.77L293.27 105.86M293.27 105.86L292.35 103.78M292.35 103.78L291.79 101.57M291.79 101.57L291.6 99.3M291.6 99.3L291.6 92.25M291.6 92.25L460.79 92.25M460.79 92.25L460.79 557.52M460.79 557.52L291.6 557.52M291.6 557.52L291.6 550.46M291.6 550.46L291.6 550.46M291.6 550.46L291.79 548.2M291.79 548.2L292.35 545.99M292.35 545.99L293.27 543.91M293.27 543.91L294.51 542M294.51 542L296.06 540.33M296.06 540.33L297.86 538.94M297.86 538.94L299.86 537.86M299.86 537.86L302.02 537.13M302.02 537.13L304.27 536.76M304.27 536.76L417.4 527.83M417.4 527.83L417.4 527.83M417.4 527.83L420.4 527.41M420.4 527.41L423.34 526.66M423.34 526.66L426.17 525.58M426.17 525.58L428.86 524.17M428.86 524.17L431.37 522.47M431.37 522.47L433.67 520.5M433.67 520.5L435.73 518.27M435.73 518.27L437.52 515.82M437.52 515.82L439.02 513.19M439.02 513.19L440.2 510.4M440.2 510.4L441.06 507.49M441.06 507.49L441.58 504.5M441.58 504.5L441.75 501.47"
    fill="none" stroke="white" stroke-width="3" />
    <path
    d="M417.4 527.83L409.45 527.83M402.73 527.83L389.3 527.83M382.59 527.83L369.16 527.83M362.45 527.83L349.02 527.83M342.3 527.83L328.87 527.83M322.16 527.83L314.21 527.83"
    fill="none" stroke="white" stroke-width="2" />

  <path d="M462.11 92.25L545.86 92.25"
    fill="none" stroke="yellow" stroke-width="0.5" />
  <path d="M462.11 557.52L545.86 557.52"
    fill="none" stroke="yellow" stroke-width="0.5" />
  <path d="M537.41 109.17L537.41 540.6"
    fill="none" stroke="yellow" stroke-width="0.5" />
  <path d="M534.59 109.17L537.41 92.25 537.41 92.25 540.23 109.17 534.59 109.17Z"
    fill-rule="evenodd" fill="yellow" />
  <path d="M534.59 540.6L537.41 557.52 537.41 557.52 540.23 540.6 534.59 540.6Z"
    fill-rule="evenodd" fill="yellow" />
  <path
    d="M536.08 292.36L519.17 292.36M528.03 292.36L525.61 289.94M525.61 289.94L524.8 288.33M524.8 288.33L524.8 285.91M524.8 285.91L525.61 284.3M525.61 284.3L528.03 283.49M528.03 283.49L536.08 283.49"
    fill="none" stroke="yellow" stroke-width="2" />
  <path d="M460.79 92.25L460.79 92.25"
    fill="none" stroke="black" stroke-width="0.5" />
  <path d="M460.79 557.52L460.79 557.52"
    fill="none" stroke="black" stroke-width="0.5" />
  <path d="M537.41 557.52L537.41 557.52"
    fill="none" stroke="black" stroke-width="0.5" />
  <path d="M291.6 90.93L291.6 11.62"
    fill="none" stroke="yellow" stroke-width="0.5" />
  <path d="M460.79 90.93L460.79 11.62"
    fill="none" stroke="yellow" stroke-width="0.5" />
  <path d="M308.52 20.08L443.87 20.08"
    fill="none" stroke="yellow" stroke-width="0.5" />
  <path d="M308.52 17.26L291.6 20.08 291.6 20.08 308.52 22.9 308.52 17.26Z"
    fill-rule="evenodd" fill="yellow" />
  <path d="M443.87 17.26L460.79 20.08 460.79 20.08 443.87 22.9 443.87 17.26Z"
    fill-rule="evenodd" fill="yellow" />
  <path
    d="M371.36 18.62L371.36 1.7M371.36 9.75L372.97 8.14M372.97 8.14L374.58 7.34M374.58 7.34L377 7.34M377 7.34L378.61 8.14M378.61 8.14L380.22 9.75M380.22 9.75L381.03 12.17M381.03 12.17L381.03 13.78M381.03 13.78L380.22 16.2M380.22 16.2L378.61 17.81M378.61 17.81L377 18.62M377 18.62L374.58 18.62M374.58 18.62L372.97 17.81M372.97 17.81L371.36 16.2"
    fill="none" stroke="yellow" stroke-width="2" />
  <path d="M291.6 92.25L291.6 92.25"
    fill="none" stroke="black" stroke-width="0.5" />
  <path d="M460.79 92.25L460.79 92.25"
    fill="none" stroke="black" stroke-width="0.5" />
  <path d="M460.79 20.08L460.79 20.08"
    fill="none" stroke="black" stroke-width="0.5" />
  <path d="M393.2 501.47L326.29 501.47"
    fill="none" stroke="yellow" stroke-width="0.5" />
  <path d="M364.93 148.3L326.29 148.3"
    fill="none" stroke="yellow" stroke-width="0.5" />
  <path d="M334.75 484.55L334.75 165.22"
    fill="none" stroke="yellow" stroke-width="0.5" />
  <path d="M331.93 484.55L334.75 501.47 334.75 501.47 337.57 484.55 331.93 484.55Z"
    fill-rule="evenodd" fill="yellow" />
  <path d="M331.93 165.22L334.75 148.3 334.75 148.3 337.57 165.22 331.93 165.22Z"
    fill-rule="evenodd" fill="yellow" />
  <path
    d="M333.4 334.55L316.48 334.55M325.34 334.55L322.92 332.14M322.92 332.14L322.12 330.52M322.12 330.52L322.12 328.11M322.12 328.11L322.92 326.5M322.92 326.5L325.34 325.69M325.34 325.69L333.4 325.69M319.7 319.24L318.9 317.63M318.9 317.63L316.48 315.22M316.48 315.22L333.4 315.22"
    fill="none" stroke="yellow" stroke-width="2" />
  <path d="M394.52 501.47L394.52 501.47"
    fill="none" stroke="black" stroke-width="0.5" />
  <path d="M366.25 148.3L366.25 148.3"
    fill="none" stroke="black" stroke-width="0.5" />
  <path d="M334.75 148.3L334.75 148.3"
    fill="none" stroke="black" stroke-width="0.5" />
  <path
    d="M356.33 324.88L376.16 324.88M389.59 324.88L403.02 324.88M416.44 324.88L429.87 324.88M443.3 324.88L456.73 324.88M470.16 324.88L489.99 324.88"
    fill="none" stroke="yellow" stroke-width="0.5" />
  <path
    d="M376.19 371.59L376.19 358.46M376.19 345.03L376.19 331.6M376.19 318.17L376.19 304.74M376.19 291.31L376.19 278.18"
    fill="none" stroke="yellow" stroke-width="0.5" />
  <path d="M406.69 486.64L423.73 506.56"
    fill="none" stroke="yellow" stroke-width="0.5" />
  <path
    d="M408.62 486.86L417.19 479.53M413.52 482.67L415.88 481.71M415.88 481.71L418.15 481.89M418.15 481.89L419.81 482.59M419.81 482.59L421.38 484.43"
    fill="none" stroke="yellow" stroke-width="2" />
  <path d="M425.88 504.73L434.73 519.41 434.73 519.41 421.59 508.39 425.88 504.73Z"
    fill-rule="evenodd" fill="yellow" />
  <!-- <path d="M434.73 519.41L434.73 519.41"
    fill="none" stroke="black" stroke-width="2" /> -->
  <path d="M423.73 506.56L423.73 506.56"
    fill="none" stroke="black" stroke-width="0.5" />
  <path d="M374.87 92.25L367.73 92.25"
    fill="none" stroke="yellow" stroke-width="0.5" />
  <path d="M375.8 118.55L384.65 118.55"
    fill="none" stroke="yellow" stroke-width="0.5" />
  <path d="M376.19 135.47L376.19 152.39"
    fill="none" stroke="yellow" stroke-width="0.5" />
  <path d="M376.19 75.33L376.19 34.69"
    fill="none" stroke="yellow" stroke-width="0.5" />
  <path d="M376.19 118.55L376.19 92.25"
    fill="none" stroke="yellow" stroke-width="0.5" />
  <path d="M373.37 135.47L376.19 118.55 376.19 118.55 379.01 135.47 373.37 135.47Z"
    fill-rule="evenodd" fill="yellow" />
  <path d="M373.37 75.33L376.19 92.25 376.19 92.25 379.01 75.33 373.37 75.33Z"
    fill-rule="evenodd" fill="yellow" />
  <path
    d="M368.25 55.82L368.25 46.15M368.25 46.15L366.64 46.15M366.64 46.15L365.03 46.96M365.03 46.96L364.23 47.76M364.23 47.76L363.42 49.37M363.42 49.37L363.42 51.79M363.42 51.79L364.23 53.4M364.23 53.4L365.84 55.01M365.84 55.01L368.25 55.82M368.25 55.82L369.87 55.82M369.87 55.82L372.28 55.01M372.28 55.01L373.89 53.4M373.89 53.4L374.7 51.79M374.7 51.79L374.7 49.37M374.7 49.37L373.89 47.76M373.89 47.76L372.28 46.15M361 41.32L360.2 39.7M360.2 39.7L357.78 37.29M357.78 37.29L374.7 37.29"
    fill="none" stroke="yellow" stroke-width="2" />
  <path d="M376.19 92.25L376.19 92.25"
    fill="none" stroke="black" stroke-width="0.5" />
  <path d="M374.48 118.55L374.48 118.55"
    fill="none" stroke="black" stroke-width="0.5" />
  <path d="M376.19 118.55L376.19 118.55"
    fill="none" stroke="black" stroke-width="0.5" />
  <path d="M291.6 558.84L291.6 598.3"
    fill="none" stroke="yellow" stroke-width="0.5" />
  <path d="M376.19 558.84L376.19 598.3"
    fill="none" stroke="yellow" stroke-width="0.5" />
  <path d="M308.52 589.84L359.28 589.84"
    fill="none" stroke="yellow" stroke-width="0.5" />
  <path d="M308.52 587.02L291.6 589.84 291.6 589.84 308.52 592.66 308.52 587.02Z"
    fill-rule="evenodd" fill="yellow" />
  <path d="M359.28 587.02L376.19 589.84 376.19 589.84 359.28 592.66 359.28 587.02Z"
    fill-rule="evenodd" fill="yellow" />
  <path
    d="M311.74 587.02L311.74 570.11M311.74 578.16L313.35 576.55M313.35 576.55L314.96 575.75M314.96 575.75L317.38 575.75M317.38 575.75L318.99 576.55M318.99 576.55L320.6 578.16M320.6 578.16L321.41 580.58M321.41 580.58L321.41 582.19M321.41 582.19L320.6 584.61M320.6 584.61L318.99 586.22M318.99 586.22L317.38 587.02M317.38 587.02L314.96 587.02M314.96 587.02L313.35 586.22M313.35 586.22L311.74 584.61M341.55 566.88L327.05 592.66M345.58 574.13L345.58 573.33M345.58 573.33L346.39 571.72M346.39 571.72L347.19 570.91M347.19 570.91L348.8 570.11M348.8 570.11L352.02 570.11M352.02 570.11L353.64 570.91M353.64 570.91L354.44 571.72M354.44 571.72L355.25 573.33M355.25 573.33L355.25 574.94M355.25 574.94L354.44 576.55M354.44 576.55L352.83 578.97M352.83 578.97L344.77 587.02M344.77 587.02L356.05 587.02"
    fill="none" stroke="yellow" stroke-width="2" />
  <path d="M291.6 557.52L291.6 557.52"
    fill="none" stroke="black" stroke-width="0.5" />
  <path d="M376.19 557.52L376.19 557.52"
    fill="none" stroke="black" stroke-width="0.5" />
  <path d="M376.19 589.84L376.19 589.84"
    fill="none" stroke="black" stroke-width="0.5" />
  <path d="M441.75 372.23L441.75 364.04"
    fill="none" stroke="yellow" stroke-width="0.5" />
  <path d="M460.79 371.17L460.79 364.04"
    fill="none" stroke="yellow" stroke-width="0.5" />
  <path d="M424.84 372.5L407.92 372.5"
    fill="none" stroke="yellow" stroke-width="0.5" />
  <path d="M477.71 372.5L508.57 372.5"
    fill="none" stroke="yellow" stroke-width="0.5" />
  <path d="M441.75 372.5L460.79 372.5"
    fill="none" stroke="yellow" stroke-width="0.5" />
  <path d="M424.84 369.68L441.75 372.5 441.75 372.5 424.84 375.32 424.84 369.68Z"
    fill-rule="evenodd" fill="yellow" />
  <path d="M477.71 369.68L460.79 372.5 460.79 372.5 477.71 375.32 477.71 369.68Z"
    fill-rule="evenodd" fill="yellow" />
  <path
    d="M496.76 364.59L506.43 364.59M506.43 364.59L506.43 362.98M506.43 362.98L505.62 361.37M505.62 361.37L504.82 360.56M504.82 360.56L503.21 359.76M503.21 359.76L500.79 359.76M500.79 359.76L499.18 360.56M499.18 360.56L497.57 362.17M497.57 362.17L496.76 364.59M496.76 364.59L496.76 366.2M496.76 366.2L497.57 368.62M497.57 368.62L499.18 370.23M499.18 370.23L500.79 371.04M500.79 371.04L503.21 371.04M503.21 371.04L504.82 370.23M504.82 370.23L506.43 368.62"
    fill="none" stroke="yellow" stroke-width="2" />
  <path d="M441.75 373.55L441.75 373.55"
    fill="none" stroke="black" stroke-width="0.5" />
  <path d="M460.79 372.5L460.79 372.5"
    fill="none" stroke="black" stroke-width="0.5" />
  <path d="M460.79 372.5L460.79 372.5"
    fill="none" stroke="black" stroke-width="0.5" />

    <!-- y -->
    <path
    d="M357.52 290.09L368.8 289.36M357.52 280.42L368.8 289.36M368.8 289.36L373.63 293.54M373.63 293.54L374.44 294.63M374.44 294.63L374.44 297.05"
    fill="none" stroke="yellow" stroke-width="2" />
    <!-- x -->
  <path d="M473.4 321.23L486.36 309.95M482.26 321.23L477.5 309.95"
    fill="none" stroke="yellow" stroke-width="2" />
  <path d="M260.41 134.08L281.59 118.61"
    fill="none" stroke="yellow" stroke-width="0.5" />
  <path
    d="M260.79 132.17L254.14 123.06M256.99 126.96L256.21 124.53M256.21 124.53L256.56 122.28M256.56 122.28L257.39 120.68M257.39 120.68L259.34 119.26"
    fill="none" stroke="yellow" stroke-width="2" />
  <path d="M302.08 103.65L295.25 108.63"
    fill="none" stroke="yellow" stroke-width="0.5" />
  <path d="M279.93 116.33L295.25 108.63 295.25 108.63 283.25 120.89 279.93 116.33Z"
    fill-rule="evenodd" fill="yellow" />
  <!-- <path d="M295.25 108.63L295.25 108.63"
    fill="none" stroke="black" stroke-width="2" />
  <path d="M302.08 103.65L302.08 103.65"
    fill="none" stroke="black" stroke-width="0.5" />   -->
  <path d="M312.89 527.83L257.14 527.83"
    fill="none" stroke="yellow" stroke-width="0.5" />
  <path d="M302.95 536.86L257.64 540.44"
    fill="none" stroke="yellow" stroke-width="0.5" />
  <path
    d="M269.37 494.2L268.01 500.84M268.01 500.84L266.96 507.54M266.96 507.54L266.2 514.28M266.2 514.28L265.75 521.05M265.75 521.05L265.6 527.83"
    fill="none" stroke="yellow" stroke-width="0.5" />
  <path d="M269.37 494.2L276.99 460.66"
    fill="none" stroke="yellow" stroke-width="0.5" />
  <path d="M269.36 494.25L268.21 499.78M268.21 499.78L267.27 505.34M267.27 505.34L266.54 510.93"
    fill="none" stroke="yellow" stroke-width="0.5" />
  <path d="M268.34 556.54L269.51 562.06M269.51 562.06L270.88 567.53M270.88 567.53L272.46 572.95"
    fill="none" stroke="yellow" stroke-width="0.5" />
  <path d="M265.6 527.83L265.72 533.81M265.72 533.81L266.07 539.78"
    fill="none" stroke="yellow" stroke-width="0.5" />
  <path d="M269.36 511.09L265.6 527.83 265.6 527.83 263.73 510.78 269.36 511.09Z"
    fill-rule="evenodd" fill="yellow" />
  <path d="M265.54 556.92L266.07 539.78 266.07 539.78 271.13 556.16 265.54 556.92Z"
    fill-rule="evenodd" fill="yellow" />
  <path
    d="M293.91 470.57L293.66 468.04M293.66 468.04L292.27 466.9M292.27 466.9L290.69 466.54M290.69 466.54L288.94 466.97M288.94 466.97L287.8 468.36M287.8 468.36L286.3 471.32M286.3 471.32L284.98 473.5M284.98 473.5L283.05 474.72M283.05 474.72L281.3 475.15M281.3 475.15L278.95 474.61M278.95 474.61L277.55 473.47M277.55 473.47L276.95 472.5M276.95 472.5L276.7 469.97M276.7 469.97L277.41 466.83M277.41 466.83L278.73 464.65M278.73 464.65L279.7 464.04M279.7 464.04L281.44 463.61M281.44 463.61L283.8 464.15M283.8 464.15L285.19 465.29M285.19 465.29L286.41 467.22M286.41 467.22L286.66 469.75M286.66 469.75L286.73 473.07M286.73 473.07L287.16 474.82M287.16 474.82L288.55 475.97M288.55 475.97L290.12 476.32M290.12 476.32L291.87 475.89M291.87 475.89L293.19 473.72M293.19 473.72L293.91 470.57M274.73 478.61L288.02 496.5M290.34 486.29L288.41 487.5M288.41 487.5L286.84 487.14M286.84 487.14L285.45 486M285.45 486L285.02 484.25M285.02 484.25L285.38 482.68M285.38 482.68L287.3 481.47M287.3 481.47L288.87 481.82M288.87 481.82L290.27 482.96M290.27 482.96L290.7 484.71M290.7 484.71L290.34 486.29M290.34 486.29L289.2 487.68M289.2 487.68L287.88 489.86M287.88 489.86L287.34 492.21M287.34 492.21L287.59 494.75M287.59 494.75L288.02 496.5M277.73 490.86L277.31 489.11M277.31 489.11L275.91 487.97M275.91 487.97L274.34 487.61M274.34 487.61L272.41 488.82M272.41 488.82L272.06 490.39M272.06 490.39L272.48 492.14M272.48 492.14L273.88 493.29M273.88 493.29L275.45 493.64M275.45 493.64L277.38 492.43M277.38 492.43L277.73 490.86"
    fill="none" stroke="yellow" stroke-width="2" />  
</svg>