<?xml version="1.0" encoding="UTF-8"?>
<svg xmlns="http://www.w3.org/2000/svg" width="800.000" height="600.000" viewBox="0.0 0.0 800.000 600.000" version="1.1">
  <title>Produce by Acme CAD Converter</title>
  <desc>Produce by Acme CAD Converter</desc>
<path d="M276.95 475.25L276.95 124.75M276.95 124.75L276.95 124.75M276.95 124.75L277.14 120M277.14 120L277.71 115.28M277.71 115.28L278.65 110.62M278.65 110.62L279.95 106.06M279.95 106.06L281.62 101.61M281.62 101.61L283.64 97.3M283.64 97.3L285.99 93.18M285.99 93.18L288.66 89.25M288.66 89.25L291.64 85.54M291.64 85.54L294.9 82.09M294.9 82.09L298.43 78.91M298.43 78.91L302.2 76.01M302.2 76.01L306.18 73.43M306.18 73.43L310.36 71.17M310.36 71.17L314.71 69.25M314.71 69.25L319.2 67.69M319.2 67.69L323.79 66.48M323.79 66.48L328.47 65.65M328.47 65.65L333.2 65.18M333.2 65.18L539.67 53.36M539.67 53.36L539.67 53.36M539.67 53.36L542.87 53M542.87 53L546.02 52.3M546.02 52.3L549.07 51.26M549.07 51.26L551.99 49.9M551.99 49.9L554.75 48.23M554.75 48.23L557.32 46.28M557.32 46.28L559.65 44.06M559.65 44.06L561.74 41.6M561.74 41.6L563.54 38.93M563.54 38.93L565.05 36.08M565.05 36.08L566.24 33.08M566.24 33.08L567.1 29.98M567.1 29.98L567.62 26.8M567.62 26.8L567.8 23.58M567.8 23.58L567.8 1.7M567.8 1.7L232.2 1.7M232.2 1.7L232.2 598.3M232.2 598.3L567.8 598.3M567.8 598.3L567.8 576.42M567.8 576.42L567.8 576.42M567.8 576.42L567.62 573.2M567.62 573.2L567.1 570.02M567.1 570.02L566.24 566.92M566.24 566.92L565.05 563.92M565.05 563.92L563.54 561.07M563.54 561.07L561.74 558.4M561.74 558.4L559.65 555.94M559.65 555.94L557.32 553.72M557.32 553.72L554.75 551.77M554.75 551.77L551.99 550.1M551.99 550.1L549.07 548.74M549.07 548.74L546.02 547.7M546.02 547.7L542.87 547M542.87 547L539.67 546.64M539.67 546.64L333.2 534.82M333.2 534.82L333.2 534.82M333.2 534.82L328.47 534.35M328.47 534.35L323.79 533.52M323.79 533.52L319.2 532.31M319.2 532.31L314.71 530.75M314.71 530.75L310.36 528.83M310.36 528.83L306.18 526.57M306.18 526.57L302.2 523.99M302.2 523.99L298.43 521.09M298.43 521.09L294.9 517.91M294.9 517.91L291.64 514.46M291.64 514.46L288.66 510.75M288.66 510.75L285.99 506.82M285.99 506.82L283.64 502.7M283.64 502.7L281.62 498.39M281.62 498.39L279.95 493.94M279.95 493.94L278.65 489.38M278.65 489.38L277.71 484.72M277.71 484.72L277.14 480M277.14 480L276.95 475.25"
fill="none" stroke="black" stroke-width="0.5"/>
</svg>
